<?xml version="1.0" encoding="UTF-8"?>
<svg width="12px" height="17px" viewBox="0 0 12 17" version="1.1" xmlns="http://www.w3.org/2000/svg" xmlns:xlink="http://www.w3.org/1999/xlink">
    <title>1667A522-64AB-41DC-A798-0C89EE6E617D</title>
    <g id="FE-Assignments" stroke="none" stroke-width="1" fill="none" fill-rule="evenodd">
        <g id="FE3" transform="translate(-41.000000, -27.000000)" fill="#FFFFFF" fill-rule="nonzero">
            <g id="back" transform="translate(30.000000, 15.000000)">
                <g id="Arrow-left-white" transform="translate(16.531229, 20.638447) rotate(-270.000000) translate(-16.531229, -20.638447) translate(8.531229, 15.138447)">
                    <path d="M0.0537815126,4.56246499 L9.1070028,4.47282913 C9.59719457,4.46797575 9.99850796,4.86142025 10.0033613,5.35161202 C10.0034193,5.35747043 10.0034193,5.36332927 10.0033613,5.36918768 C9.99838244,5.87205696 9.59194492,6.27849449 9.08907563,6.28347339 L0.0358543417,6.37310924 C-0.454337428,6.37796263 -0.855650818,5.98451813 -0.860504202,5.49432636 C-0.860562206,5.48846795 -0.860562206,5.48260911 -0.860504202,5.4767507 C-0.855525298,4.97388141 -0.449087777,4.56744389 0.0537815126,4.56246499 Z" id="Rectangle" transform="translate(4.571429, 5.422969) rotate(45.000000) translate(-4.571429, -5.422969) "></path>
                    <path d="M6.67496034,4.66030734 L16.0040268,4.56900454 C16.5040386,4.56411097 16.905335,4.96545406 16.9004297,5.46546638 C16.8954344,5.96540495 16.4861415,6.37469789 15.9862029,6.37964778 C15.9861685,6.37964812 15.986134,6.37964846 15.9860996,6.3796488 L6.65703317,6.4709516 C6.15702142,6.47584518 5.75572503,6.07450207 5.76063033,5.57448976 C5.76562553,5.07455121 6.17491852,4.66525825 6.67485709,4.66030836 C6.67489149,4.66030802 6.67492594,4.66030768 6.67496034,4.66030734 Z" id="Rectangle" transform="translate(11.330530, 5.519978) scale(-1, 1) rotate(45.000000) translate(-11.330530, -5.519978) "></path>
                </g>
            </g>
        </g>
    </g>
</svg>