<?xml version="1.0" encoding="UTF-8"?>
<svg width="8px" height="12px" viewBox="0 0 8 12" version="1.1" xmlns="http://www.w3.org/2000/svg" xmlns:xlink="http://www.w3.org/1999/xlink">
    <title>2BAE8EA7-53AE-4824-9612-4D1FDA92105E</title>
    <g id="FE-Assignments" stroke="none" stroke-width="1" fill="none" fill-rule="evenodd">
        <g id="FE1" transform="translate(-1173.000000, -252.000000)" fill="#9BA4B0" fill-rule="nonzero">
            <g id="Errors" transform="translate(280.000000, 100.000000)">
                <g id="Column-Status" transform="translate(840.000000, 147.000000)">
                    <g id="sort" transform="translate(53.000000, 5.000000)">
                        <path d="M0.756008809,4.72035326 L3.77216862,1.08200747 C3.89799706,0.941413043 4.11838297,0.941413043 4.24421141,1.08200747 L7.24548029,4.72035326 C7.42714975,4.92417799 7.28270763,5.24702446 7.00945889,5.24702446 L0.991285654,5.24702446 C0.71878146,5.24702446 0.573594799,4.92417799 0.756008809,4.72035326 Z" id="Shape"></path>
                        <path d="M0.756008809,10.4967672 L3.77216862,6.85842137 C3.89799706,6.71782694 4.11838297,6.71782694 4.24421141,6.85842137 L7.24548029,10.4967672 C7.42714975,10.7005919 7.28270763,11.0234383 7.00945889,11.0234383 L0.991285654,11.0234383 C0.71878146,11.0234383 0.573594799,10.7005919 0.756008809,10.4967672 Z" id="Shape" transform="translate(4.000569, 8.888207) scale(1, -1) translate(-4.000569, -8.888207) "></path>
                    </g>
                </g>
            </g>
        </g>
    </g>
</svg>